<svg width="1440" height="167" viewBox="0 0 1440 167" fill="none" xmlns="http://www.w3.org/2000/svg">
<path d="M0 96.3201L34.4 88.1881C68.8 80.1321 137.6 63.8681 206.08 52.2401C274.72 40.6121 342.88 33.4681 411.52 28.4521C480 23.3601 548.8 20.3201 617.28 28.6801C685.92 37.0401 754.08 56.8001 822.72 59.6881C891.2 62.6521 960 48.6681 1028.48 37.0401C1097.12 25.4121 1165.28 15.9881 1233.92 10.288C1302.4 4.58805 1371.2 2.61205 1405.6 1.54805L1440 0.560059V167.76H1405.6C1371.2 167.76 1302.4 167.76 1233.92 167.76C1165.28 167.76 1097.12 167.76 1028.48 167.76C960 167.76 891.2 167.76 822.72 167.76C754.08 167.76 685.92 167.76 617.28 167.76C548.8 167.76 480 167.76 411.52 167.76C342.88 167.76 274.72 167.76 206.08 167.76C137.6 167.76 68.8 167.76 34.4 167.76H0V96.3201Z" fill="#2E225F"/>
<path d="M0 96.3201L34.4 88.1881C68.8 80.1321 137.6 63.8681 206.08 52.2401C274.72 40.6121 342.88 33.4681 411.52 28.4521C480 23.3601 548.8 20.3201 617.28 28.6801C685.92 37.0401 754.08 56.8001 822.72 59.6881C891.2 62.6521 960 48.6681 1028.48 37.0401C1097.12 25.4121 1165.28 15.9881 1233.92 10.288C1302.4 4.58805 1371.2 2.61205 1405.6 1.54805L1440 0.560059V167.76H1405.6C1371.2 167.76 1302.4 167.76 1233.92 167.76C1165.28 167.76 1097.12 167.76 1028.48 167.76C960 167.76 891.2 167.76 822.72 167.76C754.08 167.76 685.92 167.76 617.28 167.76C548.8 167.76 480 167.76 411.52 167.76C342.88 167.76 274.72 167.76 206.08 167.76C137.6 167.76 68.8 167.76 34.4 167.76H0V96.3201Z" fill="#2E225F"/>
<path d="M0 96.3201L34.4 88.1881C68.8 80.1321 137.6 63.8681 206.08 52.2401C274.72 40.6121 342.88 33.4681 411.52 28.4521C480 23.3601 548.8 20.3201 617.28 28.6801C685.92 37.0401 754.08 56.8001 822.72 59.6881C891.2 62.6521 960 48.6681 1028.48 37.0401C1097.12 25.4121 1165.28 15.9881 1233.92 10.288C1302.4 4.58805 1371.2 2.61205 1405.6 1.54805L1440 0.560059V167.76H1405.6C1371.2 167.76 1302.4 167.76 1233.92 167.76C1165.28 167.76 1097.12 167.76 1028.48 167.76C960 167.76 891.2 167.76 822.72 167.76C754.08 167.76 685.92 167.76 617.28 167.76C548.8 167.76 480 167.76 411.52 167.76C342.88 167.76 274.72 167.76 206.08 167.76C137.6 167.76 68.8 167.76 34.4 167.76H0V96.3201Z" fill="#2E225F"/>
</svg>
