<svg id="visual" viewBox="0 0 900 600" width="900" height="600" xmlns="http://www.w3.org/2000/svg" xmlns:xlink="http://www.w3.org/1999/xlink" version="1.1"><path d="M0 157L82 157L82 265L164 265L164 193L245 193L245 109L327 109L327 205L409 205L409 115L491 115L491 295L573 295L573 199L655 199L655 241L736 241L736 115L818 115L818 205L900 205L900 103L900 0L900 0L818 0L818 0L736 0L736 0L655 0L655 0L573 0L573 0L491 0L491 0L409 0L409 0L327 0L327 0L245 0L245 0L164 0L164 0L82 0L82 0L0 0Z" fill="#2d225e"></path><path d="M0 211L82 211L82 379L164 379L164 235L245 235L245 217L327 217L327 253L409 253L409 247L491 247L491 361L573 361L573 283L655 283L655 295L736 295L736 241L818 241L818 325L900 325L900 193L900 101L900 203L818 203L818 113L736 113L736 239L655 239L655 197L573 197L573 293L491 293L491 113L409 113L409 203L327 203L327 107L245 107L245 191L164 191L164 263L82 263L82 155L0 155Z" fill="#1c5592"></path><path d="M0 361L82 361L82 469L164 469L164 307L245 307L245 337L327 337L327 331L409 331L409 367L491 367L491 451L573 451L573 385L655 385L655 385L736 385L736 301L818 301L818 373L900 373L900 277L900 191L900 323L818 323L818 239L736 239L736 293L655 293L655 281L573 281L573 359L491 359L491 245L409 245L409 251L327 251L327 215L245 215L245 233L164 233L164 377L82 377L82 209L0 209Z" fill="#0089bb"></path><path d="M0 499L82 499L82 559L164 559L164 547L245 547L245 499L327 499L327 541L409 541L409 559L491 559L491 553L573 553L573 511L655 511L655 499L736 499L736 541L818 541L818 541L900 541L900 529L900 275L900 371L818 371L818 299L736 299L736 383L655 383L655 383L573 383L573 449L491 449L491 365L409 365L409 329L327 329L327 335L245 335L245 305L164 305L164 467L82 467L82 359L0 359Z" fill="#00bccd"></path><path d="M0 601L82 601L82 601L164 601L164 601L245 601L245 601L327 601L327 601L409 601L409 601L491 601L491 601L573 601L573 601L655 601L655 601L736 601L736 601L818 601L818 601L900 601L900 601L900 527L900 539L818 539L818 539L736 539L736 497L655 497L655 509L573 509L573 551L491 551L491 557L409 557L409 539L327 539L327 497L245 497L245 545L164 545L164 557L82 557L82 497L0 497Z" fill="#48e9b5"></path></svg>