<svg id="visual" viewBox="0 0 1900 900" width="1900" height="900" xmlns="http://www.w3.org/2000/svg" xmlns:xlink="http://www.w3.org/1999/xlink" version="1.1"><path d="M0 723L45.2 723.2C90.3 723.3 180.7 723.7 271.2 705.2C361.7 686.7 452.3 649.3 542.8 650.5C633.3 651.7 723.7 691.3 814.2 712.5C904.7 733.7 995.3 736.3 1085.8 718.2C1176.3 700 1266.7 661 1357.2 632.2C1447.7 603.3 1538.3 584.7 1628.8 580.5C1719.3 576.3 1809.7 586.7 1854.8 591.8L1900 597L1900 901L1854.8 901C1809.7 901 1719.3 901 1628.8 901C1538.3 901 1447.7 901 1357.2 901C1266.7 901 1176.3 901 1085.8 901C995.3 901 904.7 901 814.2 901C723.7 901 633.3 901 542.8 901C452.3 901 361.7 901 271.2 901C180.7 901 90.3 901 45.2 901L0 901Z" fill="#2d225e" stroke-linecap="round" stroke-linejoin="miter"></path></svg>