<svg id="visual" viewBox="0 0 960 540" width="960" height="540" xmlns="http://www.w3.org/2000/svg" xmlns:xlink="http://www.w3.org/1999/xlink" version="1.1"><path d="M0 433L22.8 433.2C45.7 433.3 91.3 433.7 137 422.7C182.7 411.7 228.3 389.3 274 390C319.7 390.7 365.3 414.3 411.2 427C457 439.7 503 441.3 548.8 430.5C594.7 419.7 640.3 396.3 686 379C731.7 361.7 777.3 350.3 823 347.8C868.7 345.3 914.3 351.7 937.2 354.8L960 358L960 541L937.2 541C914.3 541 868.7 541 823 541C777.3 541 731.7 541 686 541C640.3 541 594.7 541 548.8 541C503 541 457 541 411.2 541C365.3 541 319.7 541 274 541C228.3 541 182.7 541 137 541C91.3 541 45.7 541 22.8 541L0 541Z" fill="#2d225e" stroke-linecap="round" stroke-linejoin="miter"></path></svg>